<svg xmlns="http://www.w3.org/2000/svg" viewBox="0 0 800 600">
  <!-- Background with natural gradient -->
  <defs>
    <linearGradient id="bgGradient" x1="0%" y1="0%" x2="0%" y2="100%">
      <stop offset="0%" stop-color="#E8F5E9" />
      <stop offset="100%" stop-color="#C8E6C9" />
    </linearGradient>
  </defs>
  <rect width="800" height="600" fill="url(#bgGradient)" />
  
  <!-- Decorative leaf pattern background -->
  <g opacity="0.1">
    <path d="M50,50 C80,20 120,20 150,50 C180,80 180,120 150,150 C120,180 80,180 50,150 C20,120 20,80 50,50 Z" fill="#4CAF50" />
    <path d="M650,450 C680,420 720,420 750,450 C780,480 780,520 750,550 C720,580 680,580 650,550 C620,520 620,480 650,450 Z" fill="#4CAF50" />
    <path d="M700,100 C730,70 770,70 800,100 C830,130 830,170 800,200 C770,230 730,230 700,200 C670,170 670,130 700,100 Z" fill="#4CAF50" />
    <path d="M100,500 C130,470 170,470 200,500 C230,530 230,570 200,600 C170,630 130,630 100,600 C70,570 70,530 100,500 Z" fill="#4CAF50" />
  </g>
  
  <!-- Title Banner -->
  <rect x="200" y="40" width="400" height="60" rx="10" fill="#81C784" />
  <text x="400" y="80" font-family="Arial, sans-serif" font-size="24" font-weight="bold" fill="#FFFFFF" text-anchor="middle">SUSTAINABLE ALTERNATIVES</text>
  
  <!-- Glass Container -->
  <g transform="translate(150, 180)">
    <!-- Glass Jar -->
    <path d="M0,40 L0,150 C0,165 15,180 30,180 L90,180 C105,180 120,165 120,150 L120,40 L100,20 L20,20 L0,40 Z" fill="#D7EDF0" opacity="0.8"/>
    <path d="M20,20 L100,20 L100,5 C100,0 95,0 90,0 L30,0 C25,0 20,0 20,5 Z" fill="#D7EDF0" opacity="0.8"/>
    <ellipse cx="60" cy="180" rx="60" ry="10" fill="#D7EDF0" opacity="0.6"/>
    
    <!-- Label -->
    <rect x="20" y="80" width="80" height="50" rx="5" fill="#A5D6A7" />
    <text x="60" y="110" font-family="Arial, sans-serif" font-size="14" font-weight="bold" fill="#1B5E20" text-anchor="middle">GLASS</text>
    
    <!-- Small text -->
    <text x="60" y="200" font-family="Arial, sans-serif" font-size="12" fill="#1B5E20" text-anchor="middle">Reusable &</text>
    <text x="60" y="215" font-family="Arial, sans-serif" font-size="12" fill="#1B5E20" text-anchor="middle">Recyclable</text>
  </g>
  
  <!-- Bamboo Products -->
  <g transform="translate(340, 180)">
    <!-- Bamboo Utensils -->
    <rect x="0" y="20" width="10" height="140" rx="5" fill="#D4B886" />
    <path d="M15,20 L55,0 L60,10 L25,30 L25,160 L15,160 Z" fill="#D4B886" />
    <path d="M65,20 C65,20 115,20 115,20 C115,20 115,30 105,30 L65,30 Z" fill="#D4B886" />
    <rect x="65" y="30" width="5" height="130" fill="#D4B886" />
    <path d="M75,30 L120,10 L120,20 L80,40 L80,160 L75,160 Z" fill="#D4B886" />
    
    <!-- Label -->
    <rect x="20" y="80" width="80" height="50" rx="5" fill="#A5D6A7" />
    <text x="60" y="110" font-family="Arial, sans-serif" font-size="14" font-weight="bold" fill="#1B5E20" text-anchor="middle">BAMBOO</text>
    
    <!-- Small text -->
    <text x="60" y="200" font-family="Arial, sans-serif" font-size="12" fill="#1B5E20" text-anchor="middle">Sustainable &</text>
    <text x="60" y="215" font-family="Arial, sans-serif" font-size="12" fill="#1B5E20" text-anchor="middle">Biodegradable</text>
  </g>
  
  <!-- Paper/Cardboard Products -->
  <g transform="translate(530, 180)">
    <!-- Cardboard Container -->
    <rect x="10" y="40" width="100" height="140" rx="5" fill="#E0C097" />
    <rect x="20" y="50" width="80" height="120" rx="3" fill="#D2B48C" />
    <rect x="0" y="25" width="120" height="20" rx="2" fill="#E0C097" />
    <path d="M0,45 L0,25 L60,0 L120,25 L120,45 Z" fill="#E0C097" />
    
    <!-- Label -->
    <rect x="20" y="80" width="80" height="50" rx="5" fill="#A5D6A7" />
    <text x="60" y="110" font-family="Arial, sans-serif" font-size="14" font-weight="bold" fill="#1B5E20" text-anchor="middle">PAPER</text>
    
    <!-- Small text -->
    <text x="60" y="200" font-family="Arial, sans-serif" font-size="12" fill="#1B5E20" text-anchor="middle">Recyclable &</text>
    <text x="60" y="215" font-family="Arial, sans-serif" font-size="12" fill="#1B5E20" text-anchor="middle">Compostable</text>
  </g>
  
  <!-- Stainless Steel Container -->
  <g transform="translate(150, 380)">
    <!-- Steel Water Bottle -->
    <path d="M40,0 L80,0 L90,10 L90,150 C90,165 75,180 60,180 C45,180 30,165 30,150 L30,10 Z" fill="#D0D0D0" />
    <ellipse cx="60" cy="0" rx="20" ry="5" fill="#C0C0C0" />
    <path d="M90,10 C90,15 75,20 60,20 C45,20 30,15 30,10" fill="none" stroke="#A0A0A0" stroke-width="2" />
    <path d="M40,30 L80,30" fill="none" stroke="#A0A0A0" stroke-width="1" />
    <path d="M40,40 L80,40" fill="none" stroke="#A0A0A0" stroke-width="1" />
    
    <!-- Label -->
    <rect x="20" y="80" width="80" height="50" rx="5" fill="#A5D6A7" />
    <text x="60" y="110" font-family="Arial, sans-serif" font-size="14" font-weight="bold" fill="#1B5E20" text-anchor="middle">STEEL</text>
    
    <!-- Small text -->
    <text x="60" y="200" font-family="Arial, sans-serif" font-size="12" fill="#1B5E20" text-anchor="middle">Durable &</text>
    <text x="60" y="215" font-family="Arial, sans-serif" font-size="12" fill="#1B5E20" text-anchor="middle">Reusable</text>
  </g>
  
  <!-- Beeswax Wrap -->
  <g transform="translate(340, 380)">
    <!-- Beeswax Wrap -->
    <path d="M10,20 C30,5 80,-5 100,20 C120,40 130,100 110,140 C90,170 40,180 20,140 C0,100 -10,40 10,20 Z" fill="#F9E076" />
    <path d="M30,40 C40,35 70,35 80,45" fill="none" stroke="#E9C046" stroke-width="2" />
    <path d="M40,80 C50,75 60,75 70,85" fill="none" stroke="#E9C046" stroke-width="2" />
    <path d="M30,110 C40,105 70,105 80,115" fill="none" stroke="#E9C046" stroke-width="2" />
    
    <!-- Label -->
    <rect x="20" y="80" width="80" height="50" rx="5" fill="#A5D6A7" />
    <text x="60" y="105" font-family="Arial, sans-serif" font-size="14" font-weight="bold" fill="#1B5E20" text-anchor="middle">BEESWAX</text>
    <text x="60" y="125" font-family="Arial, sans-serif" font-size="14" font-weight="bold" fill="#1B5E20" text-anchor="middle">WRAP</text>
    
    <!-- Small text -->
    <text x="60" y="200" font-family="Arial, sans-serif" font-size="12" fill="#1B5E20" text-anchor="middle">Natural &</text>
    <text x="60" y="215" font-family="Arial, sans-serif" font-size="12" fill="#1B5E20" text-anchor="middle">Reusable</text>
  </g>
  
  <!-- Silicone Products -->
  <g transform="translate(530, 380)">
    <!-- Silicone Container -->
    <path d="M20,40 L100,40 L100,140 C100,160 80,180 60,180 C40,180 20,160 20,140 Z" fill="#B39DDB" opacity="0.8" />
    <path d="M20,40 C20,30 30,20 40,20 L80,20 C90,20 100,30 100,40" fill="#B39DDB" opacity="0.8" />
    <ellipse cx="60" cy="40" rx="40" ry="5" fill="#B39DDB" />
    <rect x="30" y="60" width="60" height="2" fill="#9575CD" />
    <rect x="30" y="70" width="60" height="2" fill="#9575CD" />
    
    <!-- Label -->
    <rect x="20" y="80" width="80" height="50" rx="5" fill="#A5D6A7" />
    <text x="60" y="110" font-family="Arial, sans-serif" font-size="14" font-weight="bold" fill="#1B5E20" text-anchor="middle">SILICONE</text>
    
    <!-- Small text -->
    <text x="60" y="200" font-family="Arial, sans-serif" font-size="12" fill="#1B5E20" text-anchor="middle">Flexible &</text>
    <text x="60" y="215" font-family="Arial, sans-serif" font-size="12" fill="#1B5E20" text-anchor="middle">Heat-Resistant</text>
  </g>
  
  <!-- Recycling symbol in corner -->
  <g transform="translate(720, 520) scale(0.6)">
    <!-- Arrow 1 -->
    <path d="M0,-30 L-10,-15 L-3,-15 L-3,10 L-23,10 L-15,0 L-35,-10 L-23,-20 L-15,-10 L-23,-10 L-3,-10 L-3,-15 L3,-15 Z" fill="#4CAF50"/>
    <!-- Arrow 2 -->
    <path d="M0,30 L10,15 L3,15 L3,-10 L23,-10 L15,0 L35,10 L23,20 L15,10 L23,10 L3,10 L3,15 L-3,15 Z" fill="#4CAF50"/>
    <!-- Arrow 3 -->
    <path d="M-20,-15 L-30,15 L-23,15 L-13,-5 L3,23 L-10,23 L0,38 L10,23 L0,23 L-13,-5 L-23,15 L-23,15 L-17,15 Z" fill="#4CAF50"/>
  </g>
  
  <!-- Bottom banner -->
  <rect x="150" y="520" width="500" height="40" rx="5" fill="#81C784" opacity="0.8" />
  <text x="400" y="545" font-family="Arial, sans-serif" font-size="18" font-weight="bold" fill="#FFFFFF" text-anchor="middle">ECO-FRIENDLY ALTERNATIVES TO PLASTIC</text>
</svg>
