<svg xmlns="http://www.w3.org/2000/svg" viewBox="0 0 800 600">
  <!-- Light eco-friendly background -->
  <rect width="800" height="600" fill="#F0F7F4" />
  
  <!-- Background decorative elements -->
  <path d="M0,0 L800,0 L800,600 L0,600 Z" fill="#E3F2E9" />
  <path d="M750,50 C700,100 700,150 750,200 C800,250 800,300 750,350 C700,400 700,450 750,500 C800,550 800,600 750,600 L800,600 L800,0 L750,0 C800,0 800,0 750,50 Z" fill="#D5E8DD" />
  <path d="M50,50 C100,100 100,150 50,200 C0,250 0,300 50,350 C100,400 100,450 50,500 C0,550 0,600 50,600 L0,600 L0,0 L50,0 C0,0 0,0 50,50 Z" fill="#D5E8DD" />
  
  <!-- Title Banner -->
  <rect x="150" y="30" width="500" height="60" rx="10" fill="#3D8168" />
  <text x="400" y="70" font-family="Arial, sans-serif" font-size="24" font-weight="bold" fill="#FFFFFF" text-anchor="middle">PLASTIC ALTERNATIVES</text>
  
  <!-- Cloth/Fabric Bag -->
  <g transform="translate(100, 150)">
    <path d="M30,0 L120,0 L140,20 L140,160 C140,175 130,180 115,180 L35,180 C20,180 10,175 10,160 L10,20 Z" fill="#E9D2AC" />
    <path d="M30,0 L40,40 L110,40 L120,0" fill="none" stroke="#D4BC95" stroke-width="2" />
    <path d="M25,60 L125,60" fill="none" stroke="#D4BC95" stroke-width="2" />
    <path d="M25,80 L125,80" fill="none" stroke="#D4BC95" stroke-width="2" />
    <path d="M25,100 L125,100" fill="none" stroke="#D4BC95" stroke-width="2" />
    <path d="M25,120 L125,120" fill="none" stroke="#D4BC95" stroke-width="2" />
    <path d="M25,140 L125,140" fill="none" stroke="#D4BC95" stroke-width="2" />
    
    <!-- Label -->
    <rect x="40" y="190" width="70" height="35" rx="5" fill="#3D8168" />
    <text x="75" y="213" font-family="Arial, sans-serif" font-size="14" font-weight="bold" fill="#FFFFFF" text-anchor="middle">COTTON</text>
    
    <!-- Description -->
    <text x="75" y="240" font-family="Arial, sans-serif" font-size="10" fill="#3D8168" text-anchor="middle">Reusable shopping bags</text>
    <text x="75" y="255" font-family="Arial, sans-serif" font-size="10" fill="#3D8168" text-anchor="middle">replace plastic bags</text>
  </g>
  
  <!-- Glass Jars -->
  <g transform="translate(250, 150)">
    <path d="M20,40 L20,160 C20,170 30,180 40,180 L110,180 C120,180 130,170 130,160 L130,40 Z" fill="#D7E6F0" opacity="0.7" />
    <path d="M20,40 L40,20 L110,20 L130,40" fill="#D7E6F0" opacity="0.7" />
    <path d="M40,20 L40,0 L110,0 L110,20" fill="#C2D7E6" opacity="0.7" />
    <ellipse cx="75" cy="0" rx="35" ry="10" fill="#C2D7E6" opacity="0.7" />
    
    <!-- Label -->
    <rect x="40" y="190" width="70" height="35" rx="5" fill="#3D8168" />
    <text x="75" y="213" font-family="Arial, sans-serif" font-size="14" font-weight="bold" fill="#FFFFFF" text-anchor="middle">GLASS</text>
    
    <!-- Description -->
    <text x="75" y="240" font-family="Arial, sans-serif" font-size="10" fill="#3D8168" text-anchor="middle">Recyclable and reusable</text>
    <text x="75" y="255" font-family="Arial, sans-serif" font-size="10" fill="#3D8168" text-anchor="middle">storage containers</text>
  </g>
  
  <!-- Metal Straws -->
  <g transform="translate(400, 150)">
    <rect x="30" y="20" width="10" height="160" rx="5" fill="#B8C4CF" />
    <rect x="60" y="20" width="10" height="160" rx="5" fill="#B8C4CF" />
    <rect x="90" y="20" width="10" height="160" rx="5" fill="#B8C4CF" />
    <rect x="120" y="20" width="10" height="160" rx="5" fill="#B8C4CF" />
    
    <!-- Label -->
    <rect x="40" y="190" width="70" height="35" rx="5" fill="#3D8168" />
    <text x="75" y="213" font-family="Arial, sans-serif" font-size="14" font-weight="bold" fill="#FFFFFF" text-anchor="middle">METAL</text>
    
    <!-- Description -->
    <text x="75" y="240" font-family="Arial, sans-serif" font-size="10" fill="#3D8168" text-anchor="middle">Stainless steel straws</text>
    <text x="75" y="255" font-family="Arial, sans-serif" font-size="10" fill="#3D8168" text-anchor="middle">replace plastic straws</text>
  </g>
  
  <!-- Wooden Cutlery -->
  <g transform="translate(550, 150)">
    <rect x="40" y="20" width="8" height="160" rx="4" fill="#BF8D5E" />
    <path d="M80,20 L100,20 L95,30 L90,35 L85,45 L83,60 L83,180 L77,180 L77,60 L75,45 L70,35 L65,30 L60,20 Z" fill="#BF8D5E" />
    <path d="M120,20 C130,20 140,25 140,35 C140,60 120,80 120,80 L120,180 L114,180 L114,80 C114,80 94,60 94,35 C94,25 104,20 114,20 Z" fill="#BF8D5E" />
    
    <!-- Label -->
    <rect x="40" y="190" width="70" height="35" rx="5" fill="#3D8168" />
    <text x="75" y="213" font-family="Arial, sans-serif" font-size="14" font-weight="bold" fill="#FFFFFF" text-anchor="middle">WOOD</text>
    
    <!-- Description -->
    <text x="75" y="240" font-family="Arial, sans-serif" font-size="10" fill="#3D8168" text-anchor="middle">Biodegradable cutlery</text>
    <text x="75" y="255" font-family="Arial, sans-serif" font-size="10" fill="#3D8168" text-anchor="middle">instead of plastic</text>
  </g>
  
  <!-- Paper Products -->
  <g transform="translate(100, 350)">
    <rect x="20" y="20" width="120" height="80" rx="5" fill="#E8D8C5" />
    <rect x="30" y="30" width="100" height="60" rx="3" fill="#D9C8B4" />
    <rect x="20" y="110" width="120" height="70" rx="5" fill="#E8D8C5" />
    <path d="M25,115 L135,115" fill="none" stroke="#D9C8B4" stroke-width="2" />
    <path d="M25,125 L135,125" fill="none" stroke="#D9C8B4" stroke-width="2" />
    <path d="M25,135 L135,135" fill="none" stroke="#D9C8B4" stroke-width="2" />
    <path d="M25,145 L135,145" fill="none" stroke="#D9C8B4" stroke-width="2" />
    <path d="M25,155 L135,155" fill="none" stroke="#D9C8B4" stroke-width="2" />
    <path d="M25,165 L135,165" fill="none" stroke="#D9C8B4" stroke-width="2" />
    <path d="M25,175 L135,175" fill="none" stroke="#D9C8B4" stroke-width="2" />
    
    <!-- Label -->
    <rect x="40" y="190" width="70" height="35" rx="5" fill="#3D8168" />
    <text x="75" y="213" font-family="Arial, sans-serif" font-size="14" font-weight="bold" fill="#FFFFFF" text-anchor="middle">PAPER</text>
    
    <!-- Description -->
    <text x="75" y="240" font-family="Arial, sans-serif" font-size="10" fill="#3D8168" text-anchor="middle">Recyclable packaging</text>
    <text x="75" y="255" font-family="Arial, sans-serif" font-size="10" fill="#3D8168" text-anchor="middle">and containers</text>
  </g>
  
  <!-- Silicone Storage -->
  <g transform="translate(250, 350)">
    <path d="M20,40 L130,40 L130,170 C130,175 125,180 120,180 L30,180 C25,180 20,175 20,170 Z" fill="#95C8D8" opacity="0.8" />
    <path d="M20,40 C20,30 30,20 40,20 L110,20 C120,20 130,30 130,40" fill="#95C8D8" opacity="0.8" />
    <path d="M20,40 L130,40" fill="none" stroke="#7CB3C3" stroke-width="2" />
    <ellipse cx="75" cy="40" rx="55" ry="10" fill="#95C8D8" opacity="0.8" />
    
    <!-- Label -->
    <rect x="40" y="190" width="70" height="35" rx="5" fill="#3D8168" />
    <text x="75" y="213" font-family="Arial, sans-serif" font-size="14" font-weight="bold" fill="#FFFFFF" text-anchor="middle">SILICONE</text>
    
    <!-- Description -->
    <text x="75" y="240" font-family="Arial, sans-serif" font-size="10" fill="#3D8168" text-anchor="middle">Reusable, flexible</text>
    <text x="75" y="255" font-family="Arial, sans-serif" font-size="10" fill="#3D8168" text-anchor="middle">food storage</text>
  </g>
  
  <!-- Plant-based Bioplastics -->
  <g transform="translate(400, 350)">
    <path d="M30,20 L120,20 L130,30 L130,170 C130,175 125,180 120,180 L30,180 C25,180 20,175 20,170 L20,30 Z" fill="#BCE3B5" opacity="0.8" />
    <path d="M35,50 L115,50" fill="none" stroke="#9BC594" stroke-width="1" />
    <path d="M35,60 L115,60" fill="none" stroke="#9BC594" stroke-width="1" />
    <path d="M35,70 L115,70" fill="none" stroke="#9BC594" stroke-width="1" />
    <path d="M35,80 L115,80" fill="none" stroke="#9BC594" stroke-width="1" />
    
    <!-- Plant Icons -->
    <path d="M50,110 C50,100 60,90 70,90 C80,90 90,100 90,110" fill="none" stroke="#9BC594" stroke-width="2" />
    <path d="M70,90 L70,140" fill="none" stroke="#9BC594" stroke-width="2" />
    <path d="M70,110 C60,110 55,115 55,125" fill="none" stroke="#9BC594" stroke-width="2" />
    <path d="M70,120 C80,120 85,125 85,135" fill="none" stroke="#9BC594" stroke-width="2" />
    
    <!-- Label -->
    <rect x="40" y="190" width="70" height="35" rx="5" fill="#3D8168" />
    <text x="75" y="208" font-family="Arial, sans-serif" font-size="12" font-weight="bold" fill="#FFFFFF" text-anchor="middle">PLANT</text>
    <text x="75" y="223" font-family="Arial, sans-serif" font-size="12" font-weight="bold" fill="#FFFFFF" text-anchor="middle">BASED</text>
    
    <!-- Description -->
    <text x="75" y="240" font-family="Arial, sans-serif" font-size="10" fill="#3D8168" text-anchor="middle">Compostable bioplastics</text>
    <text x="75" y="255" font-family="Arial, sans-serif" font-size="10" fill="#3D8168" text-anchor="middle">from plant sources</text>
  </g>
  
  <!-- Beeswax Wrap -->
  <g transform="translate(550, 350)">
    <path d="M30,20 C40,10 110,10 120,20 C130,30 140,60 130,90 C120,120 100,150 90,170 C80,150 60,120 50,90 C40,60 20,30 30,20 Z" fill="#F4E7A1" />
    <path d="M50,50 C60,40 90,40 100,50" fill="none" stroke="#E0D28D" stroke-width="2" />
    <path d="M60,80 C70,70 80,70 90,80" fill="none" stroke="#E0D28D" stroke-width="2" />
    <path d="M50,110 C60,100 90,100 100,110" fill="none" stroke="#E0D28D" stroke-width="2" />
    <path d="M60,140 C70,130 80,130 90,140" fill="none" stroke="#E0D28D" stroke-width="2" />
    
    <!-- Label -->
    <rect x="40" y="190" width="70" height="35" rx="5" fill="#3D8168" />
    <text x="75" y="208" font-family="Arial, sans-serif" font-size="12" font-weight="bold" fill="#FFFFFF" text-anchor="middle">BEESWAX</text>
    <text x="75" y="223" font-family="Arial, sans-serif" font-size="12" font-weight="bold" fill="#FFFFFF" text-anchor="middle">WRAP</text>
    
    <!-- Description -->
    <text x="75" y="240" font-family="Arial, sans-serif" font-size="10" fill="#3D8168" text-anchor="middle">Natural alternative to</text>
    <text x="75" y="255" font-family="Arial, sans-serif" font-size="10" fill="#3D8168" text-anchor="middle">plastic food wrap</text>
  </g>
  
  <!-- Footer with message -->
  <rect x="100" y="500" width="600" height="60" rx="10" fill="#3D8168" opacity="0.9" />
  <text x="400" y="530" font-family="Arial, sans-serif" font-size="20" font-weight="bold" fill="#FFFFFF" text-anchor="middle">CHOOSE SUSTAINABLE ALTERNATIVES</text>
  <text x="400" y="550" font-family="Arial, sans-serif" font-size="14" fill="#FFFFFF" text-anchor="middle">REDUCE • REUSE • RECYCLE</text>
  
  <!-- Leaf decorations in corners -->
  <path d="M30,30 C40,20 60,20 70,30 C80,40 80,60 70,70 C60,80 40,80 30,70 C20,60 20,40 30,30 Z" fill="#3D8168" opacity="0.2" />
  <path d="M730,30 C740,20 760,20 770,30 C780,40 780,60 770,70 C760,80 740,80 730,70 C720,60 720,40 730,30 Z" fill="#3D8168" opacity="0.2" />
  <path d="M30,530 C40,520 60,520 70,530 C80,540 80,560 70,570 C60,580 40,580 30,570 C20,560 20,540 30,530 Z" fill="#3D8168" opacity="0.2" />
  <path d="M730,530 C740,520 760,520 770,530 C780,540 780,560 770,570 C760,580 740,580 730,570 C720,560 720,540 730,530 Z" fill="#3D8168" opacity="0.2" />
</svg>
